{
  "source": "C:\\Users\\Peter\\Desktop\\stuff\\MIUN\\quantitative_research\\video_compression\\videos\\BVI-HD\\BVI-HD_CDVL_videos\\ORIG\\DiverFishAndRock_1920x1080_30fps.mp4",
  "output": "C:\\Users\\Peter\\Desktop\\stuff\\MIUN\\quantitative_research\\video_compression\\compressed_videos\\BVI-HD\\vp9\\1\\DiverFishAndRock_1920x1080_30fps_vp9.webm",
  "codec": "vp9",
  "ok": "Input #0, mov,mp4,m4a,3gp,3g2,mj2, from 'C:\\Users\\Peter\\Desktop\\stuff\\MIUN\\quantitative_research\\video_compression\\videos\\BVI-HD\\BVI-HD_CDVL_videos\\ORIG\\DiverFishAndRock_1920x1080_30fps.mp4':\n  Metadata:\n    major_brand     : isom\n    minor_version   : 512\n    compatible_brands: isomiso2avc1mp41\n    encoder         : Lavf54.28.101\n  Duration: 00:00:05.00, start: 0.000000, bitrate: 228854 kb/s\n  Stream #0:0[0x1](und): Video: h264 (High 4:4:4 Predictive) (avc1 / 0x31637661), yuv420p(progressive), 1920x1080, 228851 kb/s, 30 fps, 30 tbr, 30 tbn (default)\n    Metadata:\n      handler_name    : VideoHandler\n      vendor_id       : [0][0][0][0]\n[out#0/webm @ 000001e348b90bc0] Codec AVOption b:a (set bitrate (in bits/s)) has not been used for any stream. The most likely reason is either wrong type (e.g. a video option with no video streams) or that it is a private option of some decoder which was not actually used for any stream.\nStream mapping:\n  Stream #0:0 -> #0:0 (h264 (native) -> vp9 (libvpx-vp9))\nPress [q] to stop, [?] for help\n[libvpx-vp9 @ 000001e348b8c2c0] v1.15.2-100-g40561f514\nOutput #0, webm, to 'C:\\Users\\Peter\\Desktop\\stuff\\MIUN\\quantitative_research\\video_compression\\compressed_videos\\BVI-HD\\vp9\\1\\DiverFishAndRock_1920x1080_30fps_vp9.webm':\n  Metadata:\n    major_brand     : isom\n    minor_version   : 512\n    compatible_brands: isomiso2avc1mp41\n    encoder         : Lavf62.3.100\n  Stream #0:0(und): Video: vp9, yuv420p(tv, progressive), 1920x1080, q=2-31, 1000 kb/s, 30 fps, 1k tbn (default)\n    Metadata:\n      encoder         : Lavc62.11.100 libvpx-vp9\n      handler_name    : VideoHandler\n      vendor_id       : [0][0][0][0]\n    Side data:\n      cpb: bitrate max/min/avg: 0/0/0 buffer size: 1000000 vbv_delay: N/A\nframe=    0 fps=0.0 q=0.0 size=       0KiB time=N/A bitrate=N/A speed=N/A elapsed=0:00:00.52    \nframe=    0 fps=0.0 q=0.0 size=       0KiB time=N/A bitrate=N/A speed=N/A elapsed=0:00:01.09    \nframe=    4 fps=2.4 q=63.0 size=       1KiB time=00:00:00.13 bitrate=  38.0kbits/s speed=0.0794x elapsed=0:00:01.68    \nframe=    8 fps=3.7 q=59.0 size=       1KiB time=00:00:00.26 bitrate=  19.0kbits/s speed=0.122x elapsed=0:00:02.18    \nframe=   13 fps=4.8 q=57.0 size=       1KiB time=00:00:00.43 bitrate=  11.7kbits/s speed=0.159x elapsed=0:00:02.72    \nframe=   18 fps=5.5 q=57.0 size=       1KiB time=00:00:00.56 bitrate=   9.0kbits/s speed=0.174x elapsed=0:00:03.25    \nframe=   20 fps=5.2 q=57.0 size=       1KiB time=00:00:00.66 bitrate=   7.6kbits/s speed=0.174x elapsed=0:00:03.82    \nframe=   24 fps=5.5 q=57.0 size=       1KiB time=00:00:00.80 bitrate=   6.3kbits/s speed=0.183x elapsed=0:00:04.36    \nframe=   28 fps=5.7 q=58.0 size=       1KiB time=00:00:00.93 bitrate=   5.4kbits/s speed=0.19x elapsed=0:00:04.90    \nframe=   32 fps=5.9 q=58.0 size=       1KiB time=00:00:01.06 bitrate=   4.8kbits/s speed=0.196x elapsed=0:00:05.43    \nframe=   36 fps=6.0 q=57.0 size=       1KiB time=00:00:01.20 bitrate=   4.2kbits/s speed=0.201x elapsed=0:00:05.95    \nframe=   40 fps=6.2 q=58.0 size=       1KiB time=00:00:01.33 bitrate=   3.8kbits/s speed=0.206x elapsed=0:00:06.48    \nframe=   44 fps=6.3 q=55.0 size=       1KiB time=00:00:01.46 bitrate=   3.5kbits/s speed=0.208x elapsed=0:00:07.03    \nframe=   48 fps=6.3 q=56.0 size=       1KiB time=00:00:01.60 bitrate=   3.2kbits/s speed=0.211x elapsed=0:00:07.58    \nframe=   51 fps=6.3 q=42.0 size=       1KiB time=00:00:01.70 bitrate=   3.0kbits/s speed=0.209x elapsed=0:00:08.14    \nframe=   56 fps=6.5 q=55.0 size=       1KiB time=00:00:01.86 bitrate=   2.7kbits/s speed=0.215x elapsed=0:00:08.66    \nframe=   60 fps=6.5 q=54.0 size=       1KiB time=00:00:02.00 bitrate=   2.5kbits/s speed=0.218x elapsed=0:00:09.19    \nframe=   65 fps=6.7 q=54.0 size=       1KiB time=00:00:02.16 bitrate=   2.3kbits/s speed=0.223x elapsed=0:00:09.73    \nframe=   70 fps=6.8 q=55.0 size=       1KiB time=00:00:02.30 bitrate=   2.2kbits/s speed=0.224x elapsed=0:00:10.28    \nframe=   73 fps=6.7 q=55.0 size=       1KiB time=00:00:02.43 bitrate=   2.1kbits/s speed=0.225x elapsed=0:00:10.83    \nframe=   77 fps=6.8 q=56.0 size=       1KiB time=00:00:02.56 bitrate=   2.0kbits/s speed=0.226x elapsed=0:00:11.37    \nframe=   80 fps=6.7 q=57.0 size=       1KiB time=00:00:02.66 bitrate=   1.9kbits/s speed=0.224x elapsed=0:00:11.91    \nframe=   86 fps=6.9 q=57.0 size=       1KiB time=00:00:02.86 bitrate=   1.8kbits/s speed=0.231x elapsed=0:00:12.43    \nframe=   90 fps=6.9 q=57.0 size=       1KiB time=00:00:03.00 bitrate=   1.7kbits/s speed=0.231x elapsed=0:00:12.96    \nframe=   95 fps=7.0 q=57.0 size=       1KiB time=00:00:03.16 bitrate=   1.6kbits/s speed=0.234x elapsed=0:00:13.50    \nframe=  100 fps=7.1 q=58.0 size=       1KiB time=00:00:03.33 bitrate=   1.5kbits/s speed=0.237x elapsed=0:00:14.06    \nframe=  103 fps=7.0 q=58.0 size=       1KiB time=00:00:03.43 bitrate=   1.5kbits/s speed=0.235x elapsed=0:00:14.62    \nframe=  108 fps=7.1 q=59.0 size=       1KiB time=00:00:03.60 bitrate=   1.4kbits/s speed=0.237x elapsed=0:00:15.16    \nframe=  111 fps=7.1 q=41.0 size=       1KiB time=00:00:03.70 bitrate=   1.4kbits/s speed=0.236x elapsed=0:00:15.69    \nframe=  116 fps=7.1 q=57.0 size=       1KiB time=00:00:03.86 bitrate=   1.3kbits/s speed=0.238x elapsed=0:00:16.27    \nframe=  120 fps=7.1 q=57.0 size=       1KiB time=00:00:03.96 bitrate=   1.3kbits/s speed=0.236x elapsed=0:00:16.82    \nframe=  123 fps=7.1 q=56.0 size=       1KiB time=00:00:04.10 bitrate=   1.2kbits/s speed=0.236x elapsed=0:00:17.40    \nframe=  126 fps=7.0 q=57.0 size=       1KiB time=00:00:04.20 bitrate=   1.2kbits/s speed=0.234x elapsed=0:00:17.96    \nframe=  126 fps=6.8 q=57.0 size=       1KiB time=00:00:04.20 bitrate=   1.2kbits/s speed=0.227x elapsed=0:00:18.50    \nframe=  126 fps=6.6 q=57.0 size=       1KiB time=00:00:04.20 bitrate=   1.2kbits/s speed=0.22x elapsed=0:00:19.07    \nframe=  126 fps=6.4 q=57.0 size=       1KiB time=00:00:04.20 bitrate=   1.2kbits/s speed=0.214x elapsed=0:00:19.61    \nframe=  126 fps=6.3 q=57.0 size=       1KiB time=00:00:04.20 bitrate=   1.2kbits/s speed=0.208x elapsed=0:00:20.14    \n[out#0/webm @ 000001e348b90bc0] video:596KiB audio:0KiB subtitle:0KiB other streams:0KiB global headers:0KiB muxing overhead: 0.287412%\nframe=  150 fps=7.3 q=52.0 Lsize=     598KiB time=00:00:05.00 bitrate= 979.2kbits/s speed=0.242x elapsed=0:00:20.68    \n",
  "seconds": 21.149869680404663,
  "probe_out": {}
}